<svg data-v-0dd9719b="" version="1.0" xmlns="http://www.w3.org/2000/svg" xmlns:xlink="http://www.w3.org/1999/xlink" width="100%" height="100%" viewBox="0 0 340.000000 250.000000" preserveAspectRatio="xMidYMid meet" color-interpolation-filters="sRGB" style="margin: auto;"> <rect data-v-0dd9719b="" x="0" y="0" width="100%" height="100%" fill="#fff" fill-opacity="1" class="background"></rect> <rect data-v-0dd9719b="" x="0" y="0" width="100%" height="100%" fill="url(#watermark)" fill-opacity="1" class="watermarklayer"></rect> <g data-v-0dd9719b="" fill="#333" class="icon-text-wrapper icon-svg-group iconsvg" transform="translate(46.69999694824219,95.00389671437472)"><g class="iconsvg-imagesvg" transform="translate(0,0)"><g><rect fill="#333" fill-opacity="0" stroke-width="2" x="0" y="0" width="60" height="59.9922010138682" class="image-rect"></rect> <svg x="0" y="0" width="60" height="59.9922010138682" filtersec="colorsb8986547273" class="image-svg-svg primary" style="overflow: visible;"><svg xmlns="http://www.w3.org/2000/svg" viewBox="-0.025064129382371902 0.02431926503777504 99.97372436523438 99.96115112304688"><path d="M92.11 7.56a14.27 14.27 0 0 0-24.36 10.7A17.91 17.91 0 0 1 49.27 35.5a14.42 14.42 0 0 0-13.77 15A17.89 17.89 0 0 1 17 67.72a14.29 14.29 0 1 0 14.9 14.93 17.87 17.87 0 0 1 17.7-18.48h.8a14.23 14.23 0 0 0 7-2.2 13.93 13.93 0 0 0 2.6-2.09 14.23 14.23 0 0 0 4.15-9.45A17.87 17.87 0 0 1 81.86 32h.5a2.8 2.8 0 0 0 .29 0 14.27 14.27 0 0 0 9.46-24.44z" fill="#004e9a"></path><path d="M75.59 43.5a14.22 14.22 0 0 0-4.15 10.7A17.93 17.93 0 0 1 53 71.44a14.28 14.28 0 1 0 14.91 14.9 17.86 17.86 0 0 1 17.65-18.46h.79A14.28 14.28 0 1 0 75.59 43.5zM36.28 4.19a14.22 14.22 0 0 0-4.15 10.7 17.91 17.91 0 0 1-18.48 17.23 14.29 14.29 0 1 0 14.89 14.93 17.87 17.87 0 0 1 17.7-18.48H47A14.28 14.28 0 1 0 36.28 4.19z" fill="#27b4d4"></path><path d="M20.9 20.91a9.91 9.91 0 1 1 0-14 9.9 9.9 0 0 1 0 14zM93.21 93.21a9.91 9.91 0 1 1 0-14 9.9 9.9 0 0 1 0 14z" fill="#004e9a"></path></svg></svg> <!----></g></g> <g transform="translate(67,13.001102447509766)"><g data-gra="path-name" fill-rule="" class="tp-name iconsvg-namesvg"><g transform="scale(1)"><g><path d="M43.49-31.74L36.69 0 25.59 0 30.19-21.59 18.34 0 11.55 0 9.3-22.34 4.5 0 0 0 6.75-31.74 19.49-31.74 21.04-13.85 30.64-31.74 43.49-31.74ZM44.84-15.2L45.79-19.64Q48.34-20.89 51.01-21.47 53.69-22.04 56.98-22.04L56.98-22.04Q60.18-22.04 62.28-21.54 64.38-21.04 65.63-20.09 66.88-19.14 67.38-17.85 67.88-16.55 67.88-14.9L67.88-14.9Q67.88-13.95 67.76-12.85 67.63-11.75 67.48-11L67.48-11 65.13 0 57.08 0 56.18-3.2 55.88-3.2Q54.28-1.45 52.16-0.52 50.04 0.4 47.94 0.4L47.94 0.4Q46.74 0.4 45.59 0.05 44.44-0.3 43.54-1.02 42.64-1.75 42.09-2.87 41.54-4 41.54-5.6L41.54-5.6Q41.54-8.2 42.96-9.72 44.39-11.25 46.71-12.02 49.04-12.8 51.96-13 54.88-13.2 57.83-13.2L57.83-13.2Q57.93-13.7 58.08-14.62 58.23-15.55 58.23-16.25L58.23-16.25Q58.23-17.15 57.76-17.92 57.28-18.69 55.78-18.69L55.78-18.69Q54.03-18.69 53.21-17.67 52.39-16.65 52.14-15.2L52.14-15.2 44.84-15.2ZM56.48-7L57.28-10.85 56.38-10.85Q54.93-10.85 53.91-10.47 52.89-10.1 52.26-9.5 51.64-8.9 51.34-8.15 51.04-7.4 51.04-6.65L51.04-6.65Q51.04-5.45 51.66-4.85 52.29-4.25 53.14-4.25L53.14-4.25Q54.18-4.25 55.21-5 56.23-5.75 56.48-7L56.48-7ZM69.28 0L73.83-21.49 81.98-21.49 82.73-17.75 83.08-17.75Q84.23-19.54 86.03-20.79 87.83-22.04 90.77-22.04L90.77-22.04Q90.97-22.04 91.4-22.02 91.82-21.99 92.35-21.87 92.87-21.74 93.45-21.52 94.02-21.29 94.57-20.89L94.57-20.89 92.37-10.6 86.93-10.6Q86.83-13.7 86.38-14.92 85.93-16.15 84.93-16.15L84.93-16.15Q84.43-16.15 83.85-15.92 83.28-15.7 82.68-14.95L82.68-14.95 79.48 0 69.28 0ZM96.57-15.2L97.52-19.64Q100.07-20.89 102.75-21.47 105.42-22.04 108.72-22.04L108.72-22.04Q111.92-22.04 114.02-21.54 116.12-21.04 117.37-20.09 118.62-19.14 119.12-17.85 119.62-16.55 119.62-14.9L119.62-14.9Q119.62-13.95 119.49-12.85 119.37-11.75 119.22-11L119.22-11 116.87 0 108.82 0 107.92-3.2 107.62-3.2Q106.02-1.45 103.9-0.52 101.77 0.4 99.67 0.4L99.67 0.4Q98.47 0.4 97.32 0.05 96.17-0.3 95.27-1.02 94.37-1.75 93.82-2.87 93.27-4 93.27-5.6L93.27-5.6Q93.27-8.2 94.7-9.72 96.12-11.25 98.45-12.02 100.77-12.8 103.7-13 106.62-13.2 109.57-13.2L109.57-13.2Q109.67-13.7 109.82-14.62 109.97-15.55 109.97-16.25L109.97-16.25Q109.97-17.15 109.49-17.92 109.02-18.69 107.52-18.69L107.52-18.69Q105.77-18.69 104.95-17.67 104.12-16.65 103.87-15.2L103.87-15.2 96.57-15.2ZM108.22-7L109.02-10.85 108.12-10.85Q106.67-10.85 105.65-10.47 104.62-10.1 104-9.5 103.37-8.9 103.07-8.15 102.77-7.4 102.77-6.65L102.77-6.65Q102.77-5.45 103.4-4.85 104.02-4.25 104.87-4.25L104.87-4.25Q105.92-4.25 106.95-5 107.97-5.75 108.22-7L108.22-7ZM131.36-3.25L129.11 0 121.02 0 128.11-33.59 138.36-33.59 135.11-18.29 135.46-18.29Q137.11-20.19 139.19-21.02 141.26-21.84 143.31-21.84L143.31-21.84Q145.06-21.84 146.23-21.32 147.41-20.79 148.11-19.89 148.81-18.99 149.11-17.75 149.41-16.5 149.41-15.1L149.41-15.1Q149.41-14.4 149.31-13 149.21-11.6 148.86-9.87 148.51-8.15 147.86-6.32 147.21-4.5 146.13-3 145.06-1.5 143.44-0.55 141.81 0.4 139.56 0.4L139.56 0.4Q138.21 0.4 136.94 0.1 135.66-0.2 134.64-0.7 133.61-1.2 132.84-1.87 132.06-2.55 131.71-3.25L131.71-3.25 131.36-3.25ZM134.76-4.45L134.76-4.45Q135.96-4.45 136.76-5.72 137.56-7 138.06-8.72 138.56-10.45 138.79-12.17 139.01-13.9 139.01-14.75L139.01-14.75Q139.01-15.75 138.69-16.4 138.36-17.05 137.51-17.05L137.51-17.05Q136.51-17.05 135.66-16.32 134.81-15.6 134.41-15.1L134.41-15.1 132.46-6.15Q132.81-5.55 133.39-5 133.96-4.45 134.76-4.45ZM166.05-5.95L169.4-21.49 179.6-21.49 175 0 166.9 0 166-3.2 165.7-3.2Q164.4-1.65 162.18-0.62 159.96 0.4 157.71 0.4L157.71 0.4Q154.71 0.4 153.01-1.12 151.31-2.65 151.31-5.1L151.31-5.1Q151.31-6.35 151.73-8.22 152.16-10.1 152.51-11.75L152.51-11.75 154.61-21.49 164.75-21.49 162.25-9.8Q162.15-9.4 162.05-8.85 161.96-8.3 161.86-7.77 161.76-7.25 161.68-6.77 161.61-6.3 161.61-6L161.61-6Q161.61-5.25 161.93-4.72 162.25-4.2 163.1-4.2L163.1-4.2Q164-4.2 164.8-4.8 165.6-5.4 166.05-5.95L166.05-5.95Z" transform="translate(0, 33.59000015258789)"></path></g> <!----> <!----> <!----> <!----> <!----> <!----> <!----></g></g> <!----></g></g><defs v-gra="od"></defs></svg>